<svg width="25" height="24" viewBox="0 0 25 24" fill="none" xmlns="http://www.w3.org/2000/svg">
<path fill-rule="evenodd" clip-rule="evenodd" d="M18.333 3C17.2284 3 16.333 3.89543 16.333 5C16.333 5.34723 16.4215 5.6738 16.5772 5.95837C16.5874 5.97387 16.5972 5.98974 16.6067 6.00598C16.6161 6.0221 16.625 6.03837 16.6334 6.05477C16.9864 6.62224 17.6156 7 18.333 7C19.4376 7 20.333 6.10457 20.333 5C20.333 3.89543 19.4376 3 18.333 3ZM15.4911 7.81487C16.216 8.54669 17.2216 9 18.333 9C20.5421 9 22.333 7.20914 22.333 5C22.333 2.79086 20.5421 1 18.333 1C16.1239 1 14.333 2.79086 14.333 5C14.333 5.37703 14.3852 5.74187 14.4827 6.0877L9.17496 9.18516C8.45006 8.45332 7.44447 8 6.33301 8C4.12387 8 2.33301 9.79086 2.33301 12C2.33301 14.2091 4.12387 16 6.33301 16C7.44467 16 8.45042 15.5465 9.17535 14.8144L14.4839 17.9079C14.3856 18.255 14.333 18.6214 14.333 19C14.333 21.2091 16.1239 23 18.333 23C20.5421 23 22.333 21.2091 22.333 19C22.333 16.7909 20.5421 15 18.333 15C17.2232 15 16.219 15.452 15.4943 16.1819L10.1835 13.0871C10.2809 12.7415 10.333 12.3768 10.333 12C10.333 11.623 10.2808 11.2582 10.1834 10.9123L15.4911 7.81487ZM8.03283 10.9456C8.04118 10.9619 8.05002 10.978 8.05935 10.994C8.06875 11.0101 8.07852 11.0259 8.08866 11.0413C8.24444 11.3259 8.33301 11.6526 8.33301 12C8.33301 12.3474 8.24442 12.6742 8.08861 12.9588C8.07837 12.9744 8.0685 12.9903 8.05903 13.0065C8.04983 13.0223 8.04112 13.0382 8.03289 13.0543C7.68002 13.622 7.05066 14 6.33301 14C5.22844 14 4.33301 13.1046 4.33301 12C4.33301 10.8954 5.22844 10 6.33301 10C7.05062 10 7.67996 10.3779 8.03283 10.9456ZM16.333 19C16.333 18.6749 16.4106 18.3679 16.5482 18.0966C16.5729 18.0641 16.596 18.0297 16.617 17.9935C16.6373 17.9588 16.6552 17.9234 16.6708 17.8874C17.0297 17.3522 17.6402 17 18.333 17C19.4376 17 20.333 17.8954 20.333 19C20.333 20.1046 19.4376 21 18.333 21C17.2284 21 16.333 20.1046 16.333 19Z" fill="#34783B"/>
</svg>
